<mxfile host="app.diagrams.net" modified="2023-03-26T16:17:00.921Z" agent="Mozilla/5.0 (Windows NT 10.0; Win64; x64) AppleWebKit/537.36 (KHTML, like Gecko) Chrome/111.0.0.0 Safari/537.36 Edg/111.0.1661.51" etag="fExUm9sVi5DXGxOWvMcF" version="21.1.1" type="device">
  <diagram name="Page-1" id="2YBvvXClWsGukQMizWep">
    <mxGraphModel dx="1440" dy="917" grid="1" gridSize="10" guides="1" tooltips="1" connect="1" arrows="1" fold="1" page="1" pageScale="1" pageWidth="850" pageHeight="1100" math="0" shadow="0">
      <root>
        <mxCell id="0" />
        <mxCell id="1" parent="0" />
        <mxCell id="aM9ryv3xv72pqoxQDRHE-1" value=":InputManager" style="shape=umlLifeline;perimeter=lifelinePerimeter;whiteSpace=wrap;html=1;container=0;dropTarget=0;collapsible=0;recursiveResize=0;outlineConnect=0;portConstraint=eastwest;newEdgeStyle={&quot;edgeStyle&quot;:&quot;elbowEdgeStyle&quot;,&quot;elbow&quot;:&quot;vertical&quot;,&quot;curved&quot;:0,&quot;rounded&quot;:0};" parent="1" vertex="1">
          <mxGeometry x="80" y="40" width="100" height="300" as="geometry" />
        </mxCell>
        <mxCell id="aM9ryv3xv72pqoxQDRHE-2" value="" style="html=1;points=[];perimeter=orthogonalPerimeter;outlineConnect=0;targetShapes=umlLifeline;portConstraint=eastwest;newEdgeStyle={&quot;edgeStyle&quot;:&quot;elbowEdgeStyle&quot;,&quot;elbow&quot;:&quot;vertical&quot;,&quot;curved&quot;:0,&quot;rounded&quot;:0};" parent="aM9ryv3xv72pqoxQDRHE-1" vertex="1">
          <mxGeometry x="45" y="70" width="10" height="210" as="geometry" />
        </mxCell>
        <mxCell id="aM9ryv3xv72pqoxQDRHE-3" value="keyPressed()" style="html=1;verticalAlign=bottom;startArrow=oval;endArrow=block;startSize=8;edgeStyle=elbowEdgeStyle;elbow=vertical;curved=0;rounded=0;" parent="aM9ryv3xv72pqoxQDRHE-1" target="aM9ryv3xv72pqoxQDRHE-2" edge="1">
          <mxGeometry x="-0.1639" relative="1" as="geometry">
            <mxPoint x="-15" y="70" as="sourcePoint" />
            <mxPoint as="offset" />
          </mxGeometry>
        </mxCell>
        <mxCell id="aM9ryv3xv72pqoxQDRHE-4" value="" style="html=1;points=[];perimeter=orthogonalPerimeter;outlineConnect=0;targetShapes=umlLifeline;portConstraint=eastwest;newEdgeStyle={&quot;edgeStyle&quot;:&quot;elbowEdgeStyle&quot;,&quot;elbow&quot;:&quot;vertical&quot;,&quot;curved&quot;:0,&quot;rounded&quot;:0};" parent="aM9ryv3xv72pqoxQDRHE-1" vertex="1">
          <mxGeometry x="50" y="100" width="10" height="80" as="geometry" />
        </mxCell>
        <mxCell id="wPCIY5RfqBxvuKKY9wf4-3" value="appendKey" style="html=1;align=left;spacingLeft=2;endArrow=block;rounded=0;edgeStyle=orthogonalEdgeStyle;curved=0;rounded=0;" edge="1" target="aM9ryv3xv72pqoxQDRHE-2" parent="aM9ryv3xv72pqoxQDRHE-1">
          <mxGeometry relative="1" as="geometry">
            <mxPoint x="55" y="80" as="sourcePoint" />
            <Array as="points">
              <mxPoint x="85" y="80" />
              <mxPoint x="85" y="90" />
            </Array>
            <mxPoint x="60" y="110.02857142857135" as="targetPoint" />
          </mxGeometry>
        </mxCell>
        <mxCell id="aM9ryv3xv72pqoxQDRHE-5" value=":Player" style="shape=umlLifeline;perimeter=lifelinePerimeter;whiteSpace=wrap;html=1;container=0;dropTarget=0;collapsible=0;recursiveResize=0;outlineConnect=0;portConstraint=eastwest;newEdgeStyle={&quot;edgeStyle&quot;:&quot;elbowEdgeStyle&quot;,&quot;elbow&quot;:&quot;vertical&quot;,&quot;curved&quot;:0,&quot;rounded&quot;:0};" parent="1" vertex="1">
          <mxGeometry x="320" y="40" width="100" height="300" as="geometry" />
        </mxCell>
        <mxCell id="aM9ryv3xv72pqoxQDRHE-6" value="" style="html=1;points=[];perimeter=orthogonalPerimeter;outlineConnect=0;targetShapes=umlLifeline;portConstraint=eastwest;newEdgeStyle={&quot;edgeStyle&quot;:&quot;elbowEdgeStyle&quot;,&quot;elbow&quot;:&quot;vertical&quot;,&quot;curved&quot;:0,&quot;rounded&quot;:0};" parent="aM9ryv3xv72pqoxQDRHE-5" vertex="1">
          <mxGeometry x="45" y="80" width="10" height="200" as="geometry" />
        </mxCell>
        <mxCell id="wPCIY5RfqBxvuKKY9wf4-10" value="movement" style="html=1;align=left;spacingLeft=2;endArrow=block;rounded=0;edgeStyle=orthogonalEdgeStyle;curved=0;rounded=0;" edge="1" target="aM9ryv3xv72pqoxQDRHE-6" parent="aM9ryv3xv72pqoxQDRHE-5">
          <mxGeometry relative="1" as="geometry">
            <mxPoint x="55" y="140" as="sourcePoint" />
            <Array as="points">
              <mxPoint x="80" y="140" />
              <mxPoint x="80" y="170" />
            </Array>
            <mxPoint x="55" y="170.02857142857135" as="targetPoint" />
          </mxGeometry>
        </mxCell>
        <mxCell id="aM9ryv3xv72pqoxQDRHE-8" value="return" style="html=1;verticalAlign=bottom;endArrow=open;dashed=1;endSize=8;edgeStyle=elbowEdgeStyle;elbow=vertical;curved=0;rounded=0;" parent="1" source="aM9ryv3xv72pqoxQDRHE-6" target="aM9ryv3xv72pqoxQDRHE-2" edge="1">
          <mxGeometry relative="1" as="geometry">
            <mxPoint x="195" y="205" as="targetPoint" />
            <Array as="points">
              <mxPoint x="190" y="280" />
            </Array>
          </mxGeometry>
        </mxCell>
        <mxCell id="aM9ryv3xv72pqoxQDRHE-9" value="getKeyList()" style="html=1;verticalAlign=bottom;endArrow=block;edgeStyle=elbowEdgeStyle;elbow=vertical;curved=0;rounded=0;" parent="1" source="aM9ryv3xv72pqoxQDRHE-6" target="aM9ryv3xv72pqoxQDRHE-4" edge="1">
          <mxGeometry relative="1" as="geometry">
            <mxPoint x="175" y="160" as="sourcePoint" />
            <Array as="points">
              <mxPoint x="190" y="150" />
              <mxPoint x="180" y="160" />
              <mxPoint x="210" y="205" />
              <mxPoint x="190" y="190" />
            </Array>
          </mxGeometry>
        </mxCell>
        <mxCell id="aM9ryv3xv72pqoxQDRHE-10" value="return keyList" style="html=1;verticalAlign=bottom;endArrow=open;dashed=1;endSize=8;edgeStyle=elbowEdgeStyle;elbow=vertical;curved=0;rounded=0;" parent="1" source="aM9ryv3xv72pqoxQDRHE-4" target="aM9ryv3xv72pqoxQDRHE-6" edge="1">
          <mxGeometry relative="1" as="geometry">
            <mxPoint x="175" y="235" as="targetPoint" />
            <Array as="points">
              <mxPoint x="190" y="170" />
              <mxPoint x="200" y="180" />
              <mxPoint x="180" y="230" />
            </Array>
          </mxGeometry>
        </mxCell>
        <mxCell id="wPCIY5RfqBxvuKKY9wf4-6" value="return" style="html=1;verticalAlign=bottom;endArrow=open;dashed=1;endSize=8;edgeStyle=elbowEdgeStyle;elbow=vertical;curved=0;rounded=0;" edge="1" source="wPCIY5RfqBxvuKKY9wf4-4" parent="1">
          <mxGeometry relative="1" as="geometry">
            <mxPoint x="450" y="300" as="targetPoint" />
            <Array as="points">
              <mxPoint x="480" y="300" />
            </Array>
          </mxGeometry>
        </mxCell>
        <mxCell id="wPCIY5RfqBxvuKKY9wf4-8" value=":Game" style="shape=umlLifeline;perimeter=lifelinePerimeter;whiteSpace=wrap;html=1;container=1;dropTarget=0;collapsible=0;recursiveResize=0;outlineConnect=0;portConstraint=eastwest;newEdgeStyle={&quot;edgeStyle&quot;:&quot;elbowEdgeStyle&quot;,&quot;elbow&quot;:&quot;vertical&quot;,&quot;curved&quot;:0,&quot;rounded&quot;:0};" vertex="1" parent="1">
          <mxGeometry x="475" y="40" width="100" height="300" as="geometry" />
        </mxCell>
        <mxCell id="wPCIY5RfqBxvuKKY9wf4-4" value="" style="html=1;points=[];perimeter=orthogonalPerimeter;outlineConnect=0;targetShapes=umlLifeline;portConstraint=eastwest;newEdgeStyle={&quot;edgeStyle&quot;:&quot;elbowEdgeStyle&quot;,&quot;elbow&quot;:&quot;vertical&quot;,&quot;curved&quot;:0,&quot;rounded&quot;:0};" vertex="1" parent="wPCIY5RfqBxvuKKY9wf4-8">
          <mxGeometry x="45" y="80" width="10" height="200" as="geometry" />
        </mxCell>
        <mxCell id="wPCIY5RfqBxvuKKY9wf4-12" value="update" style="html=1;verticalAlign=bottom;endArrow=block;edgeStyle=elbowEdgeStyle;elbow=vertical;curved=0;rounded=0;" edge="1" parent="1" source="aM9ryv3xv72pqoxQDRHE-6">
          <mxGeometry width="80" relative="1" as="geometry">
            <mxPoint x="390" y="230" as="sourcePoint" />
            <mxPoint x="520" y="230" as="targetPoint" />
            <Array as="points">
              <mxPoint x="460" y="230" />
              <mxPoint x="420" y="240" />
              <mxPoint x="470" y="260" />
            </Array>
          </mxGeometry>
        </mxCell>
        <mxCell id="wPCIY5RfqBxvuKKY9wf4-13" value=":Game" style="shape=umlLifeline;perimeter=lifelinePerimeter;whiteSpace=wrap;html=1;container=1;dropTarget=0;collapsible=0;recursiveResize=0;outlineConnect=0;portConstraint=eastwest;newEdgeStyle={&quot;edgeStyle&quot;:&quot;elbowEdgeStyle&quot;,&quot;elbow&quot;:&quot;vertical&quot;,&quot;curved&quot;:0,&quot;rounded&quot;:0};" vertex="1" parent="1">
          <mxGeometry x="80" y="360" width="100" height="620" as="geometry" />
        </mxCell>
        <mxCell id="wPCIY5RfqBxvuKKY9wf4-14" value="" style="html=1;points=[];perimeter=orthogonalPerimeter;outlineConnect=0;targetShapes=umlLifeline;portConstraint=eastwest;newEdgeStyle={&quot;edgeStyle&quot;:&quot;elbowEdgeStyle&quot;,&quot;elbow&quot;:&quot;vertical&quot;,&quot;curved&quot;:0,&quot;rounded&quot;:0};" vertex="1" parent="wPCIY5RfqBxvuKKY9wf4-13">
          <mxGeometry x="45" y="80" width="10" height="530" as="geometry" />
        </mxCell>
        <mxCell id="wPCIY5RfqBxvuKKY9wf4-24" value="run()" style="html=1;align=left;spacingLeft=2;endArrow=block;rounded=0;edgeStyle=orthogonalEdgeStyle;curved=0;rounded=0;" edge="1" target="wPCIY5RfqBxvuKKY9wf4-14" parent="wPCIY5RfqBxvuKKY9wf4-13" source="wPCIY5RfqBxvuKKY9wf4-14">
          <mxGeometry relative="1" as="geometry">
            <mxPoint x="60" y="110" as="sourcePoint" />
            <Array as="points">
              <mxPoint x="70" y="100" />
              <mxPoint x="70" y="120" />
            </Array>
            <mxPoint x="65" y="140.02857142857135" as="targetPoint" />
          </mxGeometry>
        </mxCell>
        <mxCell id="wPCIY5RfqBxvuKKY9wf4-15" value="initClass()" style="html=1;verticalAlign=bottom;endArrow=block;edgeStyle=elbowEdgeStyle;elbow=vertical;curved=0;rounded=0;" edge="1" parent="1" source="wPCIY5RfqBxvuKKY9wf4-14" target="wPCIY5RfqBxvuKKY9wf4-18">
          <mxGeometry width="80" relative="1" as="geometry">
            <mxPoint x="160" y="460.14" as="sourcePoint" />
            <mxPoint x="240" y="460.14" as="targetPoint" />
            <Array as="points">
              <mxPoint x="190" y="450" />
            </Array>
          </mxGeometry>
        </mxCell>
        <mxCell id="wPCIY5RfqBxvuKKY9wf4-17" value=":Player" style="shape=umlLifeline;perimeter=lifelinePerimeter;whiteSpace=wrap;html=1;container=1;dropTarget=0;collapsible=0;recursiveResize=0;outlineConnect=0;portConstraint=eastwest;newEdgeStyle={&quot;edgeStyle&quot;:&quot;elbowEdgeStyle&quot;,&quot;elbow&quot;:&quot;vertical&quot;,&quot;curved&quot;:0,&quot;rounded&quot;:0};" vertex="1" parent="1">
          <mxGeometry x="240" y="360" width="100" height="620" as="geometry" />
        </mxCell>
        <mxCell id="wPCIY5RfqBxvuKKY9wf4-18" value="" style="html=1;points=[];perimeter=orthogonalPerimeter;outlineConnect=0;targetShapes=umlLifeline;portConstraint=eastwest;newEdgeStyle={&quot;edgeStyle&quot;:&quot;elbowEdgeStyle&quot;,&quot;elbow&quot;:&quot;vertical&quot;,&quot;curved&quot;:0,&quot;rounded&quot;:0};" vertex="1" parent="wPCIY5RfqBxvuKKY9wf4-17">
          <mxGeometry x="45" y="80" width="10" height="490" as="geometry" />
        </mxCell>
        <mxCell id="wPCIY5RfqBxvuKKY9wf4-25" value="update()" style="html=1;verticalAlign=bottom;endArrow=block;edgeStyle=elbowEdgeStyle;elbow=vertical;curved=0;rounded=0;" edge="1" parent="1" source="wPCIY5RfqBxvuKKY9wf4-14" target="wPCIY5RfqBxvuKKY9wf4-18">
          <mxGeometry width="80" relative="1" as="geometry">
            <mxPoint x="140" y="509.71" as="sourcePoint" />
            <mxPoint x="220" y="509.71" as="targetPoint" />
            <Array as="points">
              <mxPoint x="210" y="500" />
            </Array>
          </mxGeometry>
        </mxCell>
        <mxCell id="wPCIY5RfqBxvuKKY9wf4-26" value=":InputManager" style="shape=umlLifeline;perimeter=lifelinePerimeter;whiteSpace=wrap;html=1;container=1;dropTarget=0;collapsible=0;recursiveResize=0;outlineConnect=0;portConstraint=eastwest;newEdgeStyle={&quot;edgeStyle&quot;:&quot;elbowEdgeStyle&quot;,&quot;elbow&quot;:&quot;vertical&quot;,&quot;curved&quot;:0,&quot;rounded&quot;:0};" vertex="1" parent="1">
          <mxGeometry x="400" y="360" width="100" height="320" as="geometry" />
        </mxCell>
        <mxCell id="wPCIY5RfqBxvuKKY9wf4-27" value="" style="html=1;points=[];perimeter=orthogonalPerimeter;outlineConnect=0;targetShapes=umlLifeline;portConstraint=eastwest;newEdgeStyle={&quot;edgeStyle&quot;:&quot;elbowEdgeStyle&quot;,&quot;elbow&quot;:&quot;vertical&quot;,&quot;curved&quot;:0,&quot;rounded&quot;:0};" vertex="1" parent="wPCIY5RfqBxvuKKY9wf4-26">
          <mxGeometry x="45" y="120" width="10" height="190" as="geometry" />
        </mxCell>
        <mxCell id="wPCIY5RfqBxvuKKY9wf4-28" value="movement()" style="html=1;verticalAlign=bottom;endArrow=block;edgeStyle=elbowEdgeStyle;elbow=vertical;curved=0;rounded=0;" edge="1" parent="1" source="wPCIY5RfqBxvuKKY9wf4-18" target="wPCIY5RfqBxvuKKY9wf4-27">
          <mxGeometry width="80" relative="1" as="geometry">
            <mxPoint x="320" y="530.14" as="sourcePoint" />
            <mxPoint x="400" y="530.14" as="targetPoint" />
            <Array as="points">
              <mxPoint x="440" y="530" />
            </Array>
          </mxGeometry>
        </mxCell>
        <mxCell id="wPCIY5RfqBxvuKKY9wf4-29" value="keyList" style="html=1;verticalAlign=bottom;endArrow=open;dashed=1;endSize=8;edgeStyle=elbowEdgeStyle;elbow=vertical;curved=0;rounded=0;" edge="1" parent="1" source="wPCIY5RfqBxvuKKY9wf4-27" target="wPCIY5RfqBxvuKKY9wf4-18">
          <mxGeometry relative="1" as="geometry">
            <mxPoint x="440" y="550.14" as="sourcePoint" />
            <mxPoint x="300" y="560" as="targetPoint" />
            <Array as="points">
              <mxPoint x="350" y="560" />
              <mxPoint x="310" y="550" />
            </Array>
          </mxGeometry>
        </mxCell>
        <mxCell id="wPCIY5RfqBxvuKKY9wf4-31" value="move()" style="html=1;align=left;spacingLeft=2;endArrow=block;rounded=0;edgeStyle=orthogonalEdgeStyle;curved=0;rounded=0;" edge="1" parent="1">
          <mxGeometry relative="1" as="geometry">
            <mxPoint x="295" y="580" as="sourcePoint" />
            <Array as="points">
              <mxPoint x="320" y="610" />
            </Array>
            <mxPoint x="295" y="610.0285714285714" as="targetPoint" />
          </mxGeometry>
        </mxCell>
        <mxCell id="wPCIY5RfqBxvuKKY9wf4-32" value="checkFire()" style="html=1;verticalAlign=bottom;endArrow=block;edgeStyle=elbowEdgeStyle;elbow=vertical;curved=0;rounded=0;" edge="1" parent="1" source="wPCIY5RfqBxvuKKY9wf4-18" target="wPCIY5RfqBxvuKKY9wf4-27">
          <mxGeometry width="80" relative="1" as="geometry">
            <mxPoint x="300" y="640.14" as="sourcePoint" />
            <mxPoint x="380" y="640.14" as="targetPoint" />
            <Array as="points">
              <mxPoint x="390" y="640" />
            </Array>
          </mxGeometry>
        </mxCell>
        <mxCell id="wPCIY5RfqBxvuKKY9wf4-33" value="keyList" style="html=1;verticalAlign=bottom;endArrow=open;dashed=1;endSize=8;edgeStyle=elbowEdgeStyle;elbow=vertical;curved=0;rounded=0;" edge="1" parent="1">
          <mxGeometry relative="1" as="geometry">
            <mxPoint x="445" y="660" as="sourcePoint" />
            <mxPoint x="295" y="660" as="targetPoint" />
            <Array as="points">
              <mxPoint x="350" y="660" />
              <mxPoint x="310" y="650" />
            </Array>
          </mxGeometry>
        </mxCell>
        <mxCell id="wPCIY5RfqBxvuKKY9wf4-34" value=":Bullet" style="shape=umlLifeline;perimeter=lifelinePerimeter;whiteSpace=wrap;html=1;container=1;dropTarget=0;collapsible=0;recursiveResize=0;outlineConnect=0;portConstraint=eastwest;newEdgeStyle={&quot;edgeStyle&quot;:&quot;elbowEdgeStyle&quot;,&quot;elbow&quot;:&quot;vertical&quot;,&quot;curved&quot;:0,&quot;rounded&quot;:0};" vertex="1" parent="1">
          <mxGeometry x="510" y="360" width="100" height="620" as="geometry" />
        </mxCell>
        <mxCell id="wPCIY5RfqBxvuKKY9wf4-35" value="" style="html=1;points=[];perimeter=orthogonalPerimeter;outlineConnect=0;targetShapes=umlLifeline;portConstraint=eastwest;newEdgeStyle={&quot;edgeStyle&quot;:&quot;elbowEdgeStyle&quot;,&quot;elbow&quot;:&quot;vertical&quot;,&quot;curved&quot;:0,&quot;rounded&quot;:0};" vertex="1" parent="wPCIY5RfqBxvuKKY9wf4-34">
          <mxGeometry x="45" y="310" width="10" height="300" as="geometry" />
        </mxCell>
        <mxCell id="wPCIY5RfqBxvuKKY9wf4-49" value="update()" style="html=1;align=left;spacingLeft=2;endArrow=block;rounded=0;edgeStyle=orthogonalEdgeStyle;curved=0;rounded=0;" edge="1" parent="wPCIY5RfqBxvuKKY9wf4-34" source="wPCIY5RfqBxvuKKY9wf4-35" target="wPCIY5RfqBxvuKKY9wf4-35">
          <mxGeometry relative="1" as="geometry">
            <mxPoint x="60" y="390" as="sourcePoint" />
            <Array as="points">
              <mxPoint x="80" y="370" />
              <mxPoint x="70" y="390" />
            </Array>
            <mxPoint x="60" y="420.02857142857135" as="targetPoint" />
          </mxGeometry>
        </mxCell>
        <mxCell id="wPCIY5RfqBxvuKKY9wf4-47" value="move()" style="html=1;align=left;spacingLeft=2;endArrow=block;rounded=0;edgeStyle=orthogonalEdgeStyle;curved=0;rounded=0;" edge="1" parent="wPCIY5RfqBxvuKKY9wf4-34" source="wPCIY5RfqBxvuKKY9wf4-35" target="wPCIY5RfqBxvuKKY9wf4-35">
          <mxGeometry relative="1" as="geometry">
            <mxPoint x="110" y="330" as="sourcePoint" />
            <Array as="points">
              <mxPoint x="80" y="350" />
              <mxPoint x="80" y="360" />
            </Array>
            <mxPoint x="110" y="360.02857142857135" as="targetPoint" />
          </mxGeometry>
        </mxCell>
        <mxCell id="wPCIY5RfqBxvuKKY9wf4-36" value="fire()" style="html=1;verticalAlign=bottom;endArrow=block;edgeStyle=elbowEdgeStyle;elbow=vertical;curved=0;rounded=0;" edge="1" parent="1" source="wPCIY5RfqBxvuKKY9wf4-18" target="wPCIY5RfqBxvuKKY9wf4-35">
          <mxGeometry x="0.4333" width="80" relative="1" as="geometry">
            <mxPoint x="310" y="690.14" as="sourcePoint" />
            <mxPoint x="390" y="690.14" as="targetPoint" />
            <Array as="points">
              <mxPoint x="480" y="690" />
              <mxPoint x="490" y="680" />
            </Array>
            <mxPoint as="offset" />
          </mxGeometry>
        </mxCell>
        <mxCell id="wPCIY5RfqBxvuKKY9wf4-37" value="isHit()" style="html=1;align=left;spacingLeft=2;endArrow=block;rounded=0;edgeStyle=orthogonalEdgeStyle;curved=0;rounded=0;" edge="1" parent="1">
          <mxGeometry relative="1" as="geometry">
            <mxPoint x="295" y="710" as="sourcePoint" />
            <Array as="points">
              <mxPoint x="320" y="740" />
            </Array>
            <mxPoint x="295" y="740.0285714285714" as="targetPoint" />
          </mxGeometry>
        </mxCell>
        <mxCell id="wPCIY5RfqBxvuKKY9wf4-38" value=":StateMachine" style="shape=umlLifeline;perimeter=lifelinePerimeter;whiteSpace=wrap;html=1;container=1;dropTarget=0;collapsible=0;recursiveResize=0;outlineConnect=0;portConstraint=eastwest;newEdgeStyle={&quot;edgeStyle&quot;:&quot;elbowEdgeStyle&quot;,&quot;elbow&quot;:&quot;vertical&quot;,&quot;curved&quot;:0,&quot;rounded&quot;:0};" vertex="1" parent="1">
          <mxGeometry x="630" y="360" width="100" height="490" as="geometry" />
        </mxCell>
        <mxCell id="wPCIY5RfqBxvuKKY9wf4-39" value="" style="html=1;points=[];perimeter=orthogonalPerimeter;outlineConnect=0;targetShapes=umlLifeline;portConstraint=eastwest;newEdgeStyle={&quot;edgeStyle&quot;:&quot;elbowEdgeStyle&quot;,&quot;elbow&quot;:&quot;vertical&quot;,&quot;curved&quot;:0,&quot;rounded&quot;:0};" vertex="1" parent="wPCIY5RfqBxvuKKY9wf4-38">
          <mxGeometry x="45" y="430" width="10" height="50" as="geometry" />
        </mxCell>
        <mxCell id="wPCIY5RfqBxvuKKY9wf4-40" value="" style="html=1;verticalAlign=bottom;endArrow=block;edgeStyle=elbowEdgeStyle;elbow=vertical;curved=0;rounded=0;" edge="1" parent="1" source="wPCIY5RfqBxvuKKY9wf4-18" target="wPCIY5RfqBxvuKKY9wf4-39">
          <mxGeometry width="80" relative="1" as="geometry">
            <mxPoint x="300" y="770.14" as="sourcePoint" />
            <mxPoint x="380" y="770.14" as="targetPoint" />
            <Array as="points">
              <mxPoint x="400" y="800" />
              <mxPoint x="570" y="770" />
            </Array>
          </mxGeometry>
        </mxCell>
        <mxCell id="wPCIY5RfqBxvuKKY9wf4-44" value="setState()" style="html=1;verticalAlign=bottom;endArrow=block;edgeStyle=elbowEdgeStyle;elbow=vertical;curved=0;rounded=0;" edge="1" parent="1" source="wPCIY5RfqBxvuKKY9wf4-39" target="wPCIY5RfqBxvuKKY9wf4-18">
          <mxGeometry width="80" relative="1" as="geometry">
            <mxPoint x="440" y="870" as="sourcePoint" />
            <mxPoint x="390" y="870" as="targetPoint" />
            <Array as="points">
              <mxPoint x="400" y="830" />
              <mxPoint x="590" y="810" />
              <mxPoint x="600" y="820" />
              <mxPoint x="640" y="840" />
            </Array>
          </mxGeometry>
        </mxCell>
        <mxCell id="wPCIY5RfqBxvuKKY9wf4-45" value="display()" style="html=1;verticalAlign=bottom;endArrow=block;edgeStyle=elbowEdgeStyle;elbow=vertical;curved=0;rounded=0;" edge="1" parent="1" source="wPCIY5RfqBxvuKKY9wf4-14" target="wPCIY5RfqBxvuKKY9wf4-18">
          <mxGeometry width="80" relative="1" as="geometry">
            <mxPoint x="140" y="840" as="sourcePoint" />
            <mxPoint x="220" y="840" as="targetPoint" />
            <Array as="points">
              <mxPoint x="240" y="900" />
            </Array>
          </mxGeometry>
        </mxCell>
        <mxCell id="wPCIY5RfqBxvuKKY9wf4-46" value="update()" style="html=1;align=left;spacingLeft=2;endArrow=block;rounded=0;edgeStyle=orthogonalEdgeStyle;curved=0;rounded=0;" edge="1" parent="1">
          <mxGeometry relative="1" as="geometry">
            <mxPoint x="295" y="850" as="sourcePoint" />
            <Array as="points">
              <mxPoint x="320" y="880" />
            </Array>
            <mxPoint x="295" y="880.0285714285714" as="targetPoint" />
          </mxGeometry>
        </mxCell>
        <mxCell id="wPCIY5RfqBxvuKKY9wf4-51" value="display()" style="html=1;verticalAlign=bottom;endArrow=block;edgeStyle=elbowEdgeStyle;elbow=vertical;curved=0;rounded=0;" edge="1" parent="1" source="wPCIY5RfqBxvuKKY9wf4-14" target="wPCIY5RfqBxvuKKY9wf4-35">
          <mxGeometry width="80" relative="1" as="geometry">
            <mxPoint x="145" y="920" as="sourcePoint" />
            <mxPoint x="295" y="920" as="targetPoint" />
            <Array as="points">
              <mxPoint x="240" y="940" />
              <mxPoint x="250" y="920" />
            </Array>
          </mxGeometry>
        </mxCell>
        <mxCell id="wPCIY5RfqBxvuKKY9wf4-52" value="" style="html=1;verticalAlign=bottom;endArrow=block;edgeStyle=elbowEdgeStyle;elbow=vertical;curved=0;rounded=0;" edge="1" parent="1" source="wPCIY5RfqBxvuKKY9wf4-18" target="wPCIY5RfqBxvuKKY9wf4-14">
          <mxGeometry x="0.4919" width="80" relative="1" as="geometry">
            <mxPoint x="180" y="850.24" as="sourcePoint" />
            <mxPoint x="260" y="850.24" as="targetPoint" />
            <Array as="points">
              <mxPoint x="220" y="920" />
              <mxPoint x="280" y="850" />
            </Array>
            <mxPoint as="offset" />
          </mxGeometry>
        </mxCell>
        <mxCell id="wPCIY5RfqBxvuKKY9wf4-53" value="" style="html=1;verticalAlign=bottom;endArrow=block;edgeStyle=elbowEdgeStyle;elbow=vertical;curved=0;rounded=0;" edge="1" parent="1" source="wPCIY5RfqBxvuKKY9wf4-35" target="wPCIY5RfqBxvuKKY9wf4-14">
          <mxGeometry x="0.4919" width="80" relative="1" as="geometry">
            <mxPoint x="310" y="960" as="sourcePoint" />
            <mxPoint x="160" y="960" as="targetPoint" />
            <Array as="points">
              <mxPoint x="245" y="960" />
              <mxPoint x="305" y="890" />
            </Array>
            <mxPoint as="offset" />
          </mxGeometry>
        </mxCell>
      </root>
    </mxGraphModel>
  </diagram>
</mxfile>
